<?xml version="1.0" standalone="no"?>
<!DOCTYPE svg PUBLIC "-//W3C//DTD SVG 20010904//EN"
 "http://www.w3.org/TR/2001/REC-SVG-20010904/DTD/svg10.dtd">
<svg version="1.0" xmlns="http://www.w3.org/2000/svg"
 width="3024.000000pt" height="3024.000000pt" viewBox="0 0 1024.000000 1024.000000"
 preserveAspectRatio="xMidYMid meet">

<g transform="translate(0.000000,3024.000000) scale(0.100000,-0.100000)"
fill="#000000" stroke="none">
<path d="M5094 7940 c-149 -11 -253 -75 -328 -204 -36 -62 -41 -66 -75 -66
-91 -1 -325 -65 -488 -135 -156 -67 -261 -131 -449 -270 -121 -91 -169 -134
-244 -221 -172 -200 -252 -323 -369 -565 -84 -172 -132 -315 -166 -491 -14
-72 -28 -134 -30 -138 -3 -5 -26 -19 -52 -31 -187 -90 -223 -342 -70 -475 45
-39 127 -84 152 -84 18 0 18 -8 0 -135 -17 -119 -19 -238 -5 -486 18 -316 70
-512 211 -792 389 -774 1189 -1257 2085 -1257 664 0 1310 265 1724 707 332
354 511 721 583 1198 26 164 32 468 13 617 -9 69 -16 131 -16 136 0 5 27 19
59 31 45 16 71 34 106 73 55 61 68 86 84 153 14 57 4 121 -28 184 -26 49 -101
117 -156 141 -36 15 -45 24 -45 44 0 50 -42 225 -86 357 -251 756 -906 1329
-1634 1432 l-85 12 -32 60 c-42 80 -88 125 -169 165 -57 28 -83 34 -173 41
-120 9 -186 9 -317 -1z m377 -164 c58 -21 107 -64 135 -122 l26 -54 -1 -801
c-1 -896 3 -838 -74 -904 -58 -49 -110 -58 -332 -54 -169 4 -195 7 -230 25
-48 25 -101 91 -115 144 -7 26 -10 293 -8 807 l3 768 29 58 c30 61 93 118 151
136 48 15 374 12 416 -3z m-779 -1071 c3 -708 4 -773 21 -809 9 -21 17 -41 17
-45 0 -3 -356 -7 -791 -9 l-792 -3 6 60 c36 343 236 758 503 1040 188 200 487
384 774 476 105 34 234 65 252 62 4 -1 9 -348 10 -772z m1298 743 c410 -111
762 -344 1027 -680 186 -235 346 -609 370 -862 l5 -61 -806 0 c-723 -1 -806 1
-800 15 33 79 34 96 34 863 l0 759 48 -6 c26 -4 81 -16 122 -28z m1604 -1808
c29 -10 56 -57 56 -94 0 -14 -13 -40 -29 -58 l-29 -33 -2317 0 -2317 0 -30 34
c-26 29 -30 39 -25 75 4 27 15 49 32 63 l26 23 2304 0 c1443 0 2313 -4 2329
-10z m-325 -445 c37 -210 47 -506 22 -655 -90 -541 -404 -1024 -861 -1325
-510 -337 -1146 -436 -1725 -269 -572 165 -1017 540 -1275 1075 -104 217 -152
399 -172 647 -9 121 -9 183 1 295 11 132 27 255 36 285 4 9 409 12 1984 12
l1979 0 11 -65z"/>
<path d="M4041 5134 c-104 -28 -174 -69 -247 -146 -118 -125 -164 -239 -164
-406 0 -163 60 -295 189 -415 106 -98 264 -155 402 -144 87 7 204 47 284 98
239 151 325 471 193 723 -20 37 -64 93 -113 142 -85 86 -145 121 -251 149 -73
19 -221 18 -293 -1z m93 -166 c81 -25 146 -118 146 -210 0 -56 -46 -136 -98
-169 -38 -24 -57 -29 -109 -29 -168 0 -261 149 -187 298 27 55 64 87 123 108
46 17 74 17 125 2z m346 -483 c37 -19 50 -43 50 -92 -1 -62 -55 -110 -112 -99
-52 10 -88 52 -88 102 0 36 5 47 35 73 39 34 71 39 115 16z"/>
<path d="M6221 5134 c-185 -50 -350 -223 -396 -415 -46 -196 9 -382 155 -529
84 -85 162 -129 276 -156 220 -52 490 66 611 268 86 142 96 385 22 531 -77
150 -219 266 -371 302 -79 19 -226 18 -297 -1z m103 -165 c88 -22 156 -110
156 -200 0 -64 -42 -143 -93 -177 -35 -23 -51 -27 -118 -27 -70 0 -81 3 -121
30 -56 40 -89 100 -90 163 0 106 64 188 167 213 44 10 52 10 99 -2z m355 -483
c55 -29 69 -115 25 -159 -34 -34 -73 -42 -117 -23 -41 17 -57 42 -57 88 1 84
76 131 149 94z"/>
<path d="M5522 4140 c-23 -10 -33 -27 -51 -97 -19 -69 -111 -133 -193 -133
-62 0 -147 49 -172 98 -7 15 -16 42 -20 61 -9 50 -32 71 -78 71 -55 0 -78 -27
-78 -90 0 -145 149 -277 325 -288 172 -11 336 95 376 242 25 93 -34 167 -109
136z"/>
</g>
</svg>
